<?xml version="1.0" standalone="no"?>
<!DOCTYPE svg PUBLIC "-//W3C//DTD SVG 20010904//EN"
 "http://www.w3.org/TR/2001/REC-SVG-20010904/DTD/svg10.dtd">
<svg version="1.0" xmlns="http://www.w3.org/2000/svg"
 width="606.000000pt" height="606.000000pt" viewBox="0 0 606.000000 606.000000"
 preserveAspectRatio="xMidYMid meet">
<metadata>
Created by potrace 1.11, written by Peter Selinger 2001-2013
</metadata>
<g transform="translate(0.000000,606.000000) scale(0.100000,-0.100000)"
fill="#000000" stroke="none">
<path d="M3225 6018 c-60 -27 -145 -63 -260 -113 -86 -36 -224 -98 -255 -113
-30 -15 -35 -22 -36 -57 -3 -50 -14 -197 -19 -250 -2 -22 -7 -62 -10 -90 -3
-27 -7 -72 -10 -100 -12 -122 -14 -133 -40 -280 -3 -16 -8 -52 -11 -80 -4 -27
-8 -53 -10 -57 -3 -4 -7 -26 -10 -50 -3 -24 -12 -72 -20 -108 -8 -36 -17 -81
-20 -100 -3 -19 -14 -71 -25 -115 -10 -44 -21 -89 -23 -100 -4 -27 -15 -68
-38 -149 -11 -38 -22 -77 -24 -87 -2 -11 -6 -28 -8 -38 -6 -26 -60 -202 -98
-316 -36 -112 -35 -109 -35 -115 0 -3 -9 -23 -20 -45 -11 -22 -18 -47 -16 -55
3 -9 -2 -7 -11 5 -8 11 -20 26 -27 33 -6 7 -41 52 -77 100 -36 48 -73 94 -81
102 -9 8 -43 47 -76 85 -58 68 -274 286 -350 354 -21 18 -72 60 -114 93 -42
33 -77 64 -79 69 -2 5 -8 9 -14 9 -6 0 -30 16 -54 35 -23 19 -47 35 -52 35 -6
0 -12 4 -14 9 -2 8 -114 79 -298 191 -53 32 -283 140 -375 175 -172 67 -177
67 -222 38 -21 -14 -42 -29 -46 -33 -5 -4 22 -17 60 -29 88 -28 180 -73 273
-134 78 -51 207 -150 226 -173 8 -10 10 -460 10 -1560 l-1 -1546 -45 -39 c-52
-45 -246 -179 -259 -179 -5 0 -11 -3 -13 -7 -2 -5 -24 -18 -50 -31 -27 -13
-48 -27 -48 -32 0 -13 72 -54 92 -53 19 2 133 67 156 90 7 7 17 13 21 13 7 0
54 33 96 68 6 5 23 17 38 26 l27 18 0 -441 0 -442 23 4 c12 2 31 8 42 12 11 4
34 13 50 20 l31 12 1 486 c1 455 2 487 20 511 10 14 21 26 24 26 10 0 69 60
121 120 25 30 64 74 85 97 21 23 45 52 53 63 8 12 32 40 52 63 21 23 38 45 38
49 0 4 6 13 13 20 50 50 338 475 477 703 40 66 77 126 83 133 8 10 18 -6 40
-65 29 -78 107 -309 111 -328 1 -5 4 -14 8 -20 6 -10 31 -98 29 -103 -1 -1 5
-18 13 -37 8 -19 13 -35 10 -35 -3 0 0 -8 5 -18 6 -11 12 -30 15 -43 3 -13 15
-58 26 -99 21 -76 58 -213 65 -240 2 -8 18 -71 35 -140 16 -69 33 -136 37
-150 10 -40 13 -53 18 -80 2 -14 16 -72 30 -129 14 -57 40 -172 56 -255 17
-83 33 -160 36 -171 2 -11 6 -30 8 -42 2 -12 6 -35 10 -52 3 -17 6 -33 6 -36
0 -2 5 -19 10 -37 6 -18 12 -51 15 -73 3 -22 9 -56 14 -75 5 -19 11 -48 14
-65 3 -16 12 -70 21 -120 9 -49 18 -106 22 -125 3 -19 7 -44 9 -55 1 -11 3
-20 4 -20 1 0 3 -9 5 -20 1 -11 6 -40 10 -65 4 -25 7 -50 8 -56 0 -14 9 -12
62 10 22 10 72 31 110 48 39 16 84 35 100 43 17 7 102 43 190 80 88 37 163 70
168 74 10 10 14 31 22 131 3 47 8 101 10 120 3 37 16 173 20 225 3 34 13 106
20 150 16 92 25 145 31 190 3 28 8 59 10 70 13 65 35 185 39 210 3 17 10 53
16 80 5 28 12 61 15 74 3 14 14 56 24 95 11 39 21 82 24 96 2 14 14 61 26 105
12 44 23 87 25 95 1 8 11 42 20 75 10 33 18 62 17 65 0 3 5 13 10 24 6 10 12
33 15 50 3 17 9 39 15 49 5 10 16 42 25 70 8 29 29 90 45 136 l31 83 23 -28
c13 -16 23 -35 24 -41 0 -7 4 -13 8 -13 4 0 15 -12 24 -27 9 -16 25 -37 35
-48 10 -11 40 -47 66 -80 128 -158 316 -349 466 -475 24 -19 50 -42 59 -51 9
-9 53 -42 97 -75 44 -32 82 -62 85 -65 9 -11 157 -108 251 -165 52 -31 96 -60
99 -64 3 -5 5 -206 5 -448 l0 -439 73 24 c39 14 72 30 73 36 1 7 2 172 3 367
0 195 5 360 9 367 5 8 21 4 57 -13 27 -13 53 -24 57 -24 5 0 22 -7 38 -16 17
-9 78 -33 136 -54 l106 -38 47 30 c45 29 49 45 15 52 -114 22 -366 159 -445
242 l-22 23 3 1623 c1 893 3 1628 4 1634 0 6 27 31 59 55 31 24 59 46 62 49
14 15 76 52 153 91 l38 20 -24 20 c-14 10 -30 19 -36 19 -6 0 -11 5 -11 10 0
18 -42 6 -100 -27 -64 -36 -269 -199 -277 -219 -3 -8 -9 -14 -13 -14 -8 0 -90
-83 -171 -174 -24 -27 -57 -64 -74 -82 -176 -191 -517 -671 -731 -1029 -48
-80 -91 -145 -95 -145 -5 0 -9 9 -9 20 0 12 -7 34 -15 49 -16 32 -157 451
-175 521 -6 25 -14 52 -17 60 -3 8 -7 22 -9 30 -3 15 -15 59 -41 143 -8 26
-16 56 -18 65 -2 9 -4 19 -5 22 -1 3 -3 10 -4 15 -9 50 -20 93 -26 105 -5 8
-11 29 -14 45 -3 17 -17 75 -31 130 -14 55 -27 114 -30 130 -7 36 -32 146 -45
195 -18 66 -20 75 -25 115 -3 22 -10 54 -15 70 -5 17 -11 44 -14 60 -3 17 -7
41 -10 55 -3 14 -8 36 -11 50 -3 14 -11 59 -20 100 -8 41 -17 89 -21 105 -13
64 -34 181 -38 210 -3 17 -7 41 -10 55 -3 14 -8 36 -11 50 -3 14 -8 36 -11 50
-3 14 -7 41 -9 60 -18 148 -42 265 -55 267 -8 1 -46 -12 -85 -29z m-283 -1515
c23 -90 25 -99 71 -258 147 -507 398 -1116 602 -1460 73 -124 74 -105 -9 -277
-110 -229 -195 -410 -201 -428 -6 -16 -28 -68 -56 -127 -49 -105 -137 -310
-172 -400 -18 -46 -35 -83 -38 -83 -4 0 -9 12 -12 28 -6 32 -16 67 -52 187
-15 50 -29 101 -31 114 -3 14 -7 28 -10 33 -3 4 -7 16 -9 25 -4 25 -130 403
-161 488 -85 227 -216 530 -305 701 -74 144 -161 298 -171 305 -21 14 -6 57
99 279 61 129 122 260 136 290 85 189 157 352 157 355 0 2 13 32 29 67 15 35
45 105 66 156 21 51 40 90 43 88 2 -3 13 -40 24 -83z m2123 -1449 c0 -816 -2
-1484 -6 -1484 -5 0 -103 106 -174 188 -16 19 -65 80 -108 136 -43 55 -84 108
-90 116 -7 8 -30 42 -51 75 -22 33 -42 62 -45 65 -3 3 -11 14 -18 25 -6 11
-45 74 -86 140 -112 180 -191 324 -316 581 l-82 165 20 42 c11 23 37 74 58
112 22 39 62 113 89 165 84 157 313 541 333 560 4 3 35 49 71 103 35 53 68 97
72 97 5 0 8 5 8 11 0 12 30 54 120 164 35 44 71 88 80 99 8 10 36 42 62 70 26
28 48 55 48 60 0 5 3 6 7 2 5 -4 8 -675 8 -1492z m-3924 1265 c35 -39 72 -81
81 -92 9 -12 44 -56 76 -97 70 -89 192 -266 192 -279 0 -5 4 -11 8 -13 4 -1
30 -39 57 -83 27 -44 55 -88 63 -97 8 -10 11 -18 7 -18 -4 0 -1 -8 7 -17 47
-55 319 -593 320 -632 0 -14 -20 -64 -45 -111 -25 -47 -66 -123 -90 -170 -40
-75 -159 -285 -206 -362 -9 -14 -40 -68 -70 -120 -46 -80 -212 -323 -230 -338
-4 -3 -22 -25 -41 -50 -39 -50 -55 -69 -126 -150 -53 -61 -71 -80 -76 -80 -2
0 -3 625 -3 1390 0 764 3 1390 6 1390 3 0 35 -32 70 -71z"/>
</g>
</svg>
