<?xml version="1.0" encoding="UTF-8" standalone="no"?>
<svg width="270px" height="303px" viewBox="0 0 270 303" version="1.1" xmlns="http://www.w3.org/2000/svg" xmlns:xlink="http://www.w3.org/1999/xlink">
    <!-- Generator: Sketch 41 (35326) - http://www.bohemiancoding.com/sketch -->
    <title>logo</title>
    <desc>Created with Sketch.</desc>
    <defs></defs>
    <g id="Page-1" stroke="none" stroke-width="1" fill="none" fill-rule="evenodd">
        <g id="logo" fill="#060606">
            <g id="Group">
                <path d="M146.422163,1.55626459 C147.31782,1.08466926 148.219369,0.624863813 149.168058,0.265272374 C150.187456,0.725077821 149.757305,2.08680934 150.016574,2.97694553 C150.853306,7.68700389 151.460231,12.4324319 152.273393,17.1483852 C153.216189,21.5047471 154.147201,25.8670039 154.683416,30.2941051 C156.515977,38.8299805 158.024451,47.4189105 159.921828,55.9371012 C160.723205,61.3781323 162.650045,66.5656809 163.528024,71.9890272 C165.007036,77.8132296 166.097144,83.7376459 167.935597,89.4675292 C168.736974,92.9809144 169.420501,96.5355642 170.657922,99.9369455 C173.657192,111.166809 177.210356,122.231615 181.087606,133.184416 C181.947908,135.377335 183.079263,137.499514 183.415134,139.863385 L183.686188,139.886965 C191.664602,125.703735 200.797942,112.198424 210.278938,98.97607 C215.912146,91.4777043 221.557139,83.9380739 228.038863,77.1471012 C233.40691,70.8395136 239.464377,65.0624708 246.034488,60.0046109 C248.951265,57.9236965 251.803224,55.5303502 255.29157,54.4869455 C257.041636,55.0646498 258.497078,56.2495331 259.999659,57.2811479 C257.760518,58.9376265 255.002839,59.6803891 252.810837,61.4135019 C250.070835,63.0876654 247.613672,65.1567899 245.138832,67.1787549 C243.866057,68.1691051 244.384595,69.9375875 244.272638,71.3228988 C244.25496,116.719844 243.983906,162.11679 244.107648,207.51963 C244.031046,215.348113 244.078186,223.176595 244.25496,230.999183 C244.37281,231.80679 245.197757,232.2607 245.716295,232.826615 C249.652469,235.8743 253.836128,238.615447 258.279056,240.87321 C261.673123,242.954125 265.597512,243.856051 269.368698,244.987879 C267.842546,246.178658 266.204438,247.210272 264.613469,248.306732 C262.503962,248.159358 260.694972,246.962685 258.703314,246.384981 C253.730064,244.752082 249.086792,242.305681 244.196036,240.466459 C244.196036,253.075739 244.3021,265.690914 244.137111,278.300195 C241.626916,278.960428 239.28171,280.086362 236.806869,280.829125 C236.730267,266.351148 236.800977,251.873171 236.783299,237.3893 C236.901149,236.599377 236.388503,236.062938 235.710869,235.785875 C229.806607,232.378599 223.978947,228.81216 218.54019,224.69749 C209.347926,218.089261 200.892221,210.531946 192.996302,202.438191 C186.44976,195.193307 179.861971,187.889475 174.582311,179.636556 C174.464462,180.060992 174.234655,180.898074 174.116806,181.316615 C172.372632,185.885195 170.905406,190.548093 169.343899,195.181518 C167.935597,200.593074 165.82609,205.810097 164.789014,211.321868 C163.115551,216.580156 162.308281,222.062451 160.71142,227.344319 C159.468108,234.194241 158.006773,241.020584 156.845955,247.882296 C156.680966,250.741342 155.962084,253.52965 155.537825,256.353327 C155.036965,258.251498 155.254986,260.273463 154.612706,262.14216 C153.882039,271.255739 152.791931,280.333949 152.149651,289.459319 C142.951494,293.491459 133.582456,297.287802 124.337159,301.278677 C123.641847,301.573424 122.958319,301.891751 122.274792,302.210078 C121.614835,302.469455 120.9372,302.687568 120.265457,302.905681 C119.982619,300.182218 119.399263,297.500019 118.93965,294.806031 C116.229111,278.919163 113.08842,263.114825 109.694354,247.351751 C108.910654,242.293891 107.190051,237.442354 106.323857,232.402179 C103.843124,221.820759 101.197402,211.274708 98.2217006,200.822977 C96.4068177,194.904455 94.9749458,188.87393 92.8006217,183.067412 C91.8696103,179.453813 90.3257813,176.028852 89.3770925,172.415253 C88.11021,169.71537 87.1850911,166.862218 86.2835421,164.020856 C86.1951549,164.014961 86.0065956,163.997276 85.912316,163.985486 C77.5862459,178.062607 68.6591431,191.827296 58.8894161,204.961226 C54.5761228,210.490681 50.2863995,216.061401 45.4192134,221.119261 C43.993234,223.029222 42.2726307,224.691595 40.5814897,226.371654 C39.4265642,227.432743 37.4407994,228.134241 37.4172295,229.973463 C37.2934875,246.084339 37.5056167,262.195214 37.3111649,278.306089 C35.5375293,278.866109 33.6990765,279.302335 32.0550754,280.210156 C31.3892255,280.398794 30.7174831,280.587432 30.0457407,280.770175 C30.098773,265.914922 29.9809234,251.059669 30.0339557,236.204416 C27.7712445,237.937529 25.5556731,239.741381 23.14565,241.274066 C19.6455186,243.331401 16.587323,246.249397 12.609901,247.416595 C11.0719645,246.544144 9.58706023,245.583268 8.12572591,244.598813 C8.9506727,243.979844 9.7991894,243.384455 10.7419857,242.960019 C14.8490423,241.244591 18.1665069,238.167432 21.9789396,235.939144 C24.0648764,234.730681 25.7678023,233.003463 27.7005348,231.594572 C28.6492236,230.922549 29.2797187,229.837879 29.3916757,228.688366 C29.4623855,177.502588 29.320966,126.322704 29.3916757,75.1369261 C21.9730471,68.9885019 14.1949773,62.8990272 4.94968076,59.7747082 C3.37638937,59.3974319 1.80899047,58.9435214 0.32408624,58.2891829 C1.6970334,57.4638911 2.98159341,56.5089105 4.22490607,55.5067704 C6.12817618,54.846537 7.93716664,56.0373152 9.71669472,56.561965 C21.7785953,60.6530545 33.1157213,66.6482101 43.7987822,73.5393969 C50.3335393,77.866284 56.5972425,82.5881323 62.5781067,87.6459922 C68.17596,92.5800584 73.7443508,97.5848638 78.6586767,103.220428 C79.477731,104.039825 80.243753,104.924066 80.9508503,105.849572 C84.3920569,109.693074 87.8332635,113.57784 90.8855667,117.751459 C92.4352881,119.620156 93.8259127,121.606751 95.1811825,123.616926 C95.422774,121.68928 96.2889682,119.944377 96.9724955,118.152315 C99.2705616,111.455661 101.391853,104.705953 103.418865,97.9267704 C104.379339,94.236537 105.257318,90.5168288 106.424029,86.8855447 C107.048631,83.4546887 107.914825,80.0650973 108.810482,76.6931907 C109.653106,72.3427237 110.436806,67.9804669 111.397279,63.6535798 C111.809753,61.9735214 111.644763,60.1696693 112.357753,58.5603502 C113.000033,52.4590856 114.602787,46.4875097 114.997583,40.3449805 C115.645755,35.1633268 116.240896,29.9639883 116.576767,24.7528599 C117.283864,21.2217899 117.118875,17.6317704 117.236724,14.0594358 C119.387478,13.0749805 121.591265,12.2084241 123.789159,11.3300778 C128.220302,9.03694553 132.975531,7.41583658 137.471491,5.24060311 C139.032997,4.4742607 140.647536,3.83171206 142.303322,3.29527237 C143.617344,2.58198444 144.990291,1.98070039 146.422163,1.55626459 Z M36.7101323,83.0597276 C42.4140501,88.4123346 47.0632145,94.7317121 51.8479059,100.891926 C55.0946608,105.873152 58.5653298,110.712899 61.6765577,115.788444 C68.0168631,126.369864 73.9329101,137.216556 79.1477523,148.405156 C79.872527,150.02037 80.9685277,151.494105 81.3338613,153.256693 C81.4399259,154.583054 80.5619468,155.697198 79.9903765,156.817237 C74.327706,167.711089 68.5059387,178.498833 62.0654612,188.950564 C60.9930304,190.931265 59.6495456,192.746907 58.7126417,194.798346 C56.3968982,198.706693 53.4035199,202.161128 50.9876043,206.00463 C46.7332358,211.180389 42.7440288,216.586051 38.1361117,221.472957 C37.6293587,221.938658 37.1284982,222.410253 36.6276376,222.875953 C36.9576163,201.064669 36.7572721,179.2357 36.8103044,157.418521 C36.7101323,132.630292 36.9399389,107.842062 36.7101323,83.0597276 Z M108.845837,119.449202 C116.123046,104.092879 123.076169,88.5656031 129.416474,72.8025292 C130.677464,79.4107588 132.669122,85.8716148 134.660779,92.2912062 C135.191102,94.7552918 135.945339,97.160428 136.85278,99.5125097 C139.616352,108.160389 142.450634,116.825953 145.992012,125.19677 C150.652962,137.35214 156.127073,149.218658 162.432024,160.61358 C164.022992,163.737899 166.091252,166.579261 167.611511,169.744844 C166.427123,171.925973 165.584499,174.278054 164.364756,176.441498 C162.726647,179.825195 161.059076,183.202996 159.515247,186.622062 C156.704536,192.664377 153.728835,198.647743 151.277564,204.849222 C148.513993,209.948346 146.72268,215.507276 144.188914,220.7243 C142.963279,223.889883 141.366418,226.919883 140.482546,230.209261 C138.490889,223.318074 136.717253,216.350253 134.601854,209.488541 C133.924219,206.476226 132.56895,203.670233 131.83239,200.675603 C125.421375,180.968813 117.60795,161.698249 107.673234,143.494669 C105.952631,140.228872 104.014006,137.080973 102.045918,133.962549 C104.008113,128.981323 106.789362,124.383268 108.845837,119.449202 Z M222.435118,92.2676265 C227.12553,86.5731128 231.462393,80.5602724 236.75973,75.3727237 C236.800977,125.25572 236.865794,175.132821 236.806869,225.015817 C236.247084,224.461693 235.693191,223.913463 235.151083,223.359339 C232.399297,220.411868 229.688757,217.417237 227.048927,214.375447 C213.896918,198.553424 203.231535,180.815545 194.051056,162.446907 C193.662152,161.515506 193.214324,160.619475 192.748818,159.729339 C191.175527,156.53428 189.490278,153.380486 188.087869,150.102899 C188.417847,147.680078 190.250408,145.776012 191.222667,143.583093 C199.206973,127.996868 208.010334,112.823288 218.057007,98.4808949 C219.547804,96.4353502 221.068063,94.4015953 222.435118,92.2676265 Z" id="Combined-Shape"></path>
            </g>
        </g>
    </g>
</svg>